<mxfile host="app.diagrams.net" modified="2021-09-24T02:07:36.036Z" agent="5.0 (X11; Linux x86_64) AppleWebKit/537.36 (KHTML, like Gecko) Chrome/93.0.4577.82 Safari/537.36" etag="rW9Bm6ZmnYVTO0Qx9VBx" version="15.3.0" type="github">
  <diagram id="AvZHR695ZejntMQSTzXh" name="Page-1">
    <mxGraphModel dx="4076" dy="911" grid="1" gridSize="10" guides="1" tooltips="1" connect="1" arrows="1" fold="1" page="1" pageScale="1" pageWidth="850" pageHeight="1100" math="0" shadow="0">
      <root>
        <mxCell id="0" />
        <mxCell id="1" parent="0" />
        <mxCell id="tY16T3pncfpoFEnjYDi0-21" value="" style="group;fillColor=#f8cecc;strokeColor=#b85450;container=0;" parent="1" vertex="1" connectable="0">
          <mxGeometry x="-800" y="770" width="1610" height="660" as="geometry" />
        </mxCell>
        <mxCell id="tY16T3pncfpoFEnjYDi0-10" value="" style="group;fillColor=#fff2cc;strokeColor=#d6b656;" parent="1" vertex="1" connectable="0">
          <mxGeometry x="-1600" y="524" width="690" height="590" as="geometry" />
        </mxCell>
        <mxCell id="tY16T3pncfpoFEnjYDi0-12" value="UsuÃ¡rio" style="text;html=1;strokeColor=none;fillColor=none;align=center;verticalAlign=middle;whiteSpace=wrap;rounded=0;fontStyle=1" parent="tY16T3pncfpoFEnjYDi0-10" vertex="1">
          <mxGeometry x="329.13793103448273" y="41.59554730983303" width="31.724137931034477" height="21.89239332096475" as="geometry" />
        </mxCell>
        <mxCell id="lCJNZkqnmeG0tj6TGEAy-67" value="Address" style="swimlane;fontStyle=1;align=center;verticalAlign=top;childLayout=stackLayout;horizontal=1;startSize=26;horizontalStack=0;resizeParent=1;resizeParentMax=0;resizeLast=0;collapsible=1;marginBottom=0;" parent="tY16T3pncfpoFEnjYDi0-10" vertex="1">
          <mxGeometry x="40" y="470" width="160" height="86" as="geometry" />
        </mxCell>
        <mxCell id="lCJNZkqnmeG0tj6TGEAy-68" value="+ user: User" style="text;strokeColor=none;fillColor=none;align=left;verticalAlign=top;spacingLeft=4;spacingRight=4;overflow=hidden;rotatable=0;points=[[0,0.5],[1,0.5]];portConstraint=eastwest;" parent="lCJNZkqnmeG0tj6TGEAy-67" vertex="1">
          <mxGeometry y="26" width="160" height="26" as="geometry" />
        </mxCell>
        <mxCell id="lCJNZkqnmeG0tj6TGEAy-69" value="" style="line;strokeWidth=1;fillColor=none;align=left;verticalAlign=middle;spacingTop=-1;spacingLeft=3;spacingRight=3;rotatable=0;labelPosition=right;points=[];portConstraint=eastwest;" parent="lCJNZkqnmeG0tj6TGEAy-67" vertex="1">
          <mxGeometry y="52" width="160" height="8" as="geometry" />
        </mxCell>
        <mxCell id="lCJNZkqnmeG0tj6TGEAy-70" value="+ method(type): type" style="text;strokeColor=none;fillColor=none;align=left;verticalAlign=top;spacingLeft=4;spacingRight=4;overflow=hidden;rotatable=0;points=[[0,0.5],[1,0.5]];portConstraint=eastwest;" parent="lCJNZkqnmeG0tj6TGEAy-67" vertex="1">
          <mxGeometry y="60" width="160" height="26" as="geometry" />
        </mxCell>
        <mxCell id="lCJNZkqnmeG0tj6TGEAy-51" value="User" style="swimlane;fontStyle=1;align=center;verticalAlign=top;childLayout=stackLayout;horizontal=1;startSize=26;horizontalStack=0;resizeParent=1;resizeParentMax=0;resizeLast=0;collapsible=1;marginBottom=0;" parent="tY16T3pncfpoFEnjYDi0-10" vertex="1">
          <mxGeometry x="360" y="218" width="160" height="216" as="geometry" />
        </mxCell>
        <mxCell id="lCJNZkqnmeG0tj6TGEAy-85" value="+ email: string" style="text;strokeColor=none;fillColor=none;align=left;verticalAlign=top;spacingLeft=4;spacingRight=4;overflow=hidden;rotatable=0;points=[[0,0.5],[1,0.5]];portConstraint=eastwest;" parent="lCJNZkqnmeG0tj6TGEAy-51" vertex="1">
          <mxGeometry y="26" width="160" height="26" as="geometry" />
        </mxCell>
        <mxCell id="lCJNZkqnmeG0tj6TGEAy-88" value="+ password: string" style="text;strokeColor=none;fillColor=none;align=left;verticalAlign=top;spacingLeft=4;spacingRight=4;overflow=hidden;rotatable=0;points=[[0,0.5],[1,0.5]];portConstraint=eastwest;" parent="lCJNZkqnmeG0tj6TGEAy-51" vertex="1">
          <mxGeometry y="52" width="160" height="26" as="geometry" />
        </mxCell>
        <mxCell id="lCJNZkqnmeG0tj6TGEAy-84" value="+ cpf: string" style="text;strokeColor=none;fillColor=none;align=left;verticalAlign=top;spacingLeft=4;spacingRight=4;overflow=hidden;rotatable=0;points=[[0,0.5],[1,0.5]];portConstraint=eastwest;" parent="lCJNZkqnmeG0tj6TGEAy-51" vertex="1">
          <mxGeometry y="78" width="160" height="26" as="geometry" />
        </mxCell>
        <mxCell id="lCJNZkqnmeG0tj6TGEAy-87" value="+ roles: Roles[@]" style="text;strokeColor=none;fillColor=none;align=left;verticalAlign=top;spacingLeft=4;spacingRight=4;overflow=hidden;rotatable=0;points=[[0,0.5],[1,0.5]];portConstraint=eastwest;" parent="lCJNZkqnmeG0tj6TGEAy-51" vertex="1">
          <mxGeometry y="104" width="160" height="26" as="geometry" />
        </mxCell>
        <mxCell id="z6MpF38ZV2_eBYSbtqBn-24" value="+ orders: Order[@]" style="text;strokeColor=none;fillColor=none;align=left;verticalAlign=top;spacingLeft=4;spacingRight=4;overflow=hidden;rotatable=0;points=[[0,0.5],[1,0.5]];portConstraint=eastwest;" parent="lCJNZkqnmeG0tj6TGEAy-51" vertex="1">
          <mxGeometry y="130" width="160" height="26" as="geometry" />
        </mxCell>
        <mxCell id="lCJNZkqnmeG0tj6TGEAy-52" value="+ addresses: Address[@]" style="text;strokeColor=none;fillColor=none;align=left;verticalAlign=top;spacingLeft=4;spacingRight=4;overflow=hidden;rotatable=0;points=[[0,0.5],[1,0.5]];portConstraint=eastwest;" parent="lCJNZkqnmeG0tj6TGEAy-51" vertex="1">
          <mxGeometry y="156" width="160" height="26" as="geometry" />
        </mxCell>
        <mxCell id="lCJNZkqnmeG0tj6TGEAy-53" value="" style="line;strokeWidth=1;fillColor=none;align=left;verticalAlign=middle;spacingTop=-1;spacingLeft=3;spacingRight=3;rotatable=0;labelPosition=right;points=[];portConstraint=eastwest;" parent="lCJNZkqnmeG0tj6TGEAy-51" vertex="1">
          <mxGeometry y="182" width="160" height="8" as="geometry" />
        </mxCell>
        <mxCell id="lCJNZkqnmeG0tj6TGEAy-54" value="+ validateCPF(type): type" style="text;strokeColor=none;fillColor=none;align=left;verticalAlign=top;spacingLeft=4;spacingRight=4;overflow=hidden;rotatable=0;points=[[0,0.5],[1,0.5]];portConstraint=eastwest;" parent="lCJNZkqnmeG0tj6TGEAy-51" vertex="1">
          <mxGeometry y="190" width="160" height="26" as="geometry" />
        </mxCell>
        <mxCell id="lCJNZkqnmeG0tj6TGEAy-86" value="" style="edgeStyle=entityRelationEdgeStyle;fontSize=12;html=1;endArrow=ERoneToMany;" parent="tY16T3pncfpoFEnjYDi0-10" source="lCJNZkqnmeG0tj6TGEAy-52" target="lCJNZkqnmeG0tj6TGEAy-68" edge="1">
          <mxGeometry width="100" height="100" relative="1" as="geometry">
            <mxPoint x="950" y="160" as="sourcePoint" />
            <mxPoint x="1050" y="60" as="targetPoint" />
          </mxGeometry>
        </mxCell>
        <mxCell id="tY16T3pncfpoFEnjYDi0-8" value="" style="group" parent="1" vertex="1" connectable="0">
          <mxGeometry x="-810" y="160" width="1620" height="542" as="geometry" />
        </mxCell>
        <mxCell id="tY16T3pncfpoFEnjYDi0-3" value="" style="rounded=0;whiteSpace=wrap;html=1;fillColor=#dae8fc;strokeColor=#6c8ebf;" parent="tY16T3pncfpoFEnjYDi0-8" vertex="1">
          <mxGeometry width="1620" height="539" as="geometry" />
        </mxCell>
        <mxCell id="tY16T3pncfpoFEnjYDi0-5" value="Produto" style="text;html=1;strokeColor=none;fillColor=none;align=center;verticalAlign=middle;whiteSpace=wrap;rounded=0;fontStyle=1" parent="tY16T3pncfpoFEnjYDi0-8" vertex="1">
          <mxGeometry x="772.7586206896552" y="38" width="74.48275862068965" height="20" as="geometry" />
        </mxCell>
        <mxCell id="lCJNZkqnmeG0tj6TGEAy-18" value="Product" style="swimlane;fontStyle=1;align=center;verticalAlign=top;childLayout=stackLayout;horizontal=1;startSize=26;horizontalStack=0;resizeParent=1;resizeParentMax=0;resizeLast=0;collapsible=1;marginBottom=0;" parent="tY16T3pncfpoFEnjYDi0-8" vertex="1">
          <mxGeometry x="610" y="160" width="218.95" height="268" as="geometry" />
        </mxCell>
        <mxCell id="lCJNZkqnmeG0tj6TGEAy-19" value="+ name: string" style="text;strokeColor=none;fillColor=none;align=left;verticalAlign=top;spacingLeft=4;spacingRight=4;overflow=hidden;rotatable=0;points=[[0,0.5],[1,0.5]];portConstraint=eastwest;" parent="lCJNZkqnmeG0tj6TGEAy-18" vertex="1">
          <mxGeometry y="26" width="218.95" height="26" as="geometry" />
        </mxCell>
        <mxCell id="lCJNZkqnmeG0tj6TGEAy-20" value="+ description: string" style="text;strokeColor=none;fillColor=none;align=left;verticalAlign=top;spacingLeft=4;spacingRight=4;overflow=hidden;rotatable=0;points=[[0,0.5],[1,0.5]];portConstraint=eastwest;" parent="lCJNZkqnmeG0tj6TGEAy-18" vertex="1">
          <mxGeometry y="52" width="218.95" height="26" as="geometry" />
        </mxCell>
        <mxCell id="b3hXFdu3TeVm44sbpzfN-98" value="+ measures: Measures[@]" style="text;strokeColor=none;fillColor=none;align=left;verticalAlign=top;spacingLeft=4;spacingRight=4;overflow=hidden;rotatable=0;points=[[0,0.5],[1,0.5]];portConstraint=eastwest;" parent="lCJNZkqnmeG0tj6TGEAy-18" vertex="1">
          <mxGeometry y="78" width="218.95" height="26" as="geometry" />
        </mxCell>
        <mxCell id="lCJNZkqnmeG0tj6TGEAy-34" value="+ product_spec: Product_Spec[@]" style="text;strokeColor=none;fillColor=none;align=left;verticalAlign=top;spacingLeft=4;spacingRight=4;overflow=hidden;rotatable=0;points=[[0,0.5],[1,0.5]];portConstraint=eastwest;" parent="lCJNZkqnmeG0tj6TGEAy-18" vertex="1">
          <mxGeometry y="104" width="218.95" height="26" as="geometry" />
        </mxCell>
        <mxCell id="z6MpF38ZV2_eBYSbtqBn-14" value="+ categories: Category[@]" style="text;strokeColor=none;fillColor=none;align=left;verticalAlign=top;spacingLeft=4;spacingRight=4;overflow=hidden;rotatable=0;points=[[0,0.5],[1,0.5]];portConstraint=eastwest;" parent="lCJNZkqnmeG0tj6TGEAy-18" vertex="1">
          <mxGeometry y="130" width="218.95" height="26" as="geometry" />
        </mxCell>
        <mxCell id="z6MpF38ZV2_eBYSbtqBn-10" value="+ images: Product_Image [@]" style="text;strokeColor=none;fillColor=none;align=left;verticalAlign=top;spacingLeft=4;spacingRight=4;overflow=hidden;rotatable=0;points=[[0,0.5],[1,0.5]];portConstraint=eastwest;" parent="lCJNZkqnmeG0tj6TGEAy-18" vertex="1">
          <mxGeometry y="156" width="218.95" height="26" as="geometry" />
        </mxCell>
        <mxCell id="lCJNZkqnmeG0tj6TGEAy-41" value="+ product_sell: Product_Sell" style="text;strokeColor=none;fillColor=none;align=left;verticalAlign=top;spacingLeft=4;spacingRight=4;overflow=hidden;rotatable=0;points=[[0,0.5],[1,0.5]];portConstraint=eastwest;" parent="lCJNZkqnmeG0tj6TGEAy-18" vertex="1">
          <mxGeometry y="182" width="218.95" height="26" as="geometry" />
        </mxCell>
        <mxCell id="D7yU_GCtE6qUXjICYIwc-21" value="+ product_rent: Product_Rent" style="text;strokeColor=none;fillColor=none;align=left;verticalAlign=top;spacingLeft=4;spacingRight=4;overflow=hidden;rotatable=0;points=[[0,0.5],[1,0.5]];portConstraint=eastwest;" vertex="1" parent="lCJNZkqnmeG0tj6TGEAy-18">
          <mxGeometry y="208" width="218.95" height="26" as="geometry" />
        </mxCell>
        <mxCell id="lCJNZkqnmeG0tj6TGEAy-22" value="" style="line;strokeWidth=1;fillColor=none;align=left;verticalAlign=middle;spacingTop=-1;spacingLeft=3;spacingRight=3;rotatable=0;labelPosition=right;points=[];portConstraint=eastwest;" parent="lCJNZkqnmeG0tj6TGEAy-18" vertex="1">
          <mxGeometry y="234" width="218.95" height="8" as="geometry" />
        </mxCell>
        <mxCell id="lCJNZkqnmeG0tj6TGEAy-23" value="+ method(type): type" style="text;strokeColor=none;fillColor=none;align=left;verticalAlign=top;spacingLeft=4;spacingRight=4;overflow=hidden;rotatable=0;points=[[0,0.5],[1,0.5]];portConstraint=eastwest;" parent="lCJNZkqnmeG0tj6TGEAy-18" vertex="1">
          <mxGeometry y="242" width="218.95" height="26" as="geometry" />
        </mxCell>
        <mxCell id="lCJNZkqnmeG0tj6TGEAy-24" value="Product_Sell" style="swimlane;fontStyle=1;align=center;verticalAlign=top;childLayout=stackLayout;horizontal=1;startSize=26;horizontalStack=0;resizeParent=1;resizeParentMax=0;resizeLast=0;collapsible=1;marginBottom=0;" parent="tY16T3pncfpoFEnjYDi0-8" vertex="1">
          <mxGeometry x="1250" y="220" width="230" height="138" as="geometry" />
        </mxCell>
        <mxCell id="lCJNZkqnmeG0tj6TGEAy-27" value="+ price: number" style="text;strokeColor=none;fillColor=none;align=left;verticalAlign=top;spacingLeft=4;spacingRight=4;overflow=hidden;rotatable=0;points=[[0,0.5],[1,0.5]];portConstraint=eastwest;" parent="lCJNZkqnmeG0tj6TGEAy-24" vertex="1">
          <mxGeometry y="26" width="230" height="26" as="geometry" />
        </mxCell>
        <mxCell id="lCJNZkqnmeG0tj6TGEAy-33" value="+ product: Product" style="text;strokeColor=none;fillColor=none;align=left;verticalAlign=top;spacingLeft=4;spacingRight=4;overflow=hidden;rotatable=0;points=[[0,0.5],[1,0.5]];portConstraint=eastwest;" parent="lCJNZkqnmeG0tj6TGEAy-24" vertex="1">
          <mxGeometry y="52" width="230" height="26" as="geometry" />
        </mxCell>
        <mxCell id="b3hXFdu3TeVm44sbpzfN-19" value="+ orderItems: Order_Items_Sell [@]" style="text;strokeColor=none;fillColor=none;align=left;verticalAlign=top;spacingLeft=4;spacingRight=4;overflow=hidden;rotatable=0;points=[[0,0.5],[1,0.5]];portConstraint=eastwest;" parent="lCJNZkqnmeG0tj6TGEAy-24" vertex="1">
          <mxGeometry y="78" width="230" height="26" as="geometry" />
        </mxCell>
        <mxCell id="lCJNZkqnmeG0tj6TGEAy-28" value="" style="line;strokeWidth=1;fillColor=none;align=left;verticalAlign=middle;spacingTop=-1;spacingLeft=3;spacingRight=3;rotatable=0;labelPosition=right;points=[];portConstraint=eastwest;" parent="lCJNZkqnmeG0tj6TGEAy-24" vertex="1">
          <mxGeometry y="104" width="230" height="8" as="geometry" />
        </mxCell>
        <mxCell id="lCJNZkqnmeG0tj6TGEAy-29" value="+ method(type): type" style="text;strokeColor=none;fillColor=none;align=left;verticalAlign=top;spacingLeft=4;spacingRight=4;overflow=hidden;rotatable=0;points=[[0,0.5],[1,0.5]];portConstraint=eastwest;" parent="lCJNZkqnmeG0tj6TGEAy-24" vertex="1">
          <mxGeometry y="112" width="230" height="26" as="geometry" />
        </mxCell>
        <mxCell id="lCJNZkqnmeG0tj6TGEAy-31" value="" style="edgeStyle=entityRelationEdgeStyle;fontSize=12;html=1;endArrow=ERmandOne;startArrow=ERmandOne;" parent="tY16T3pncfpoFEnjYDi0-8" source="lCJNZkqnmeG0tj6TGEAy-33" target="lCJNZkqnmeG0tj6TGEAy-41" edge="1">
          <mxGeometry width="100" height="100" relative="1" as="geometry">
            <mxPoint x="1120.8139534883721" y="587" as="sourcePoint" />
            <mxPoint x="1149.0697674418604" y="479.9999999999999" as="targetPoint" />
          </mxGeometry>
        </mxCell>
        <mxCell id="lCJNZkqnmeG0tj6TGEAy-1" value="Product_Rent" style="swimlane;fontStyle=1;align=center;verticalAlign=top;childLayout=stackLayout;horizontal=1;startSize=26;horizontalStack=0;resizeParent=1;resizeParentMax=0;resizeLast=0;collapsible=1;marginBottom=0;" parent="tY16T3pncfpoFEnjYDi0-8" vertex="1">
          <mxGeometry x="970" y="350" width="230" height="140" as="geometry" />
        </mxCell>
        <mxCell id="lCJNZkqnmeG0tj6TGEAy-15" value="+ price: number" style="text;strokeColor=none;fillColor=none;align=left;verticalAlign=top;spacingLeft=4;spacingRight=4;overflow=hidden;rotatable=0;points=[[0,0.5],[1,0.5]];portConstraint=eastwest;" parent="lCJNZkqnmeG0tj6TGEAy-1" vertex="1">
          <mxGeometry y="26" width="230" height="26" as="geometry" />
        </mxCell>
        <mxCell id="lCJNZkqnmeG0tj6TGEAy-32" value="+ product: Product" style="text;strokeColor=none;fillColor=none;align=left;verticalAlign=top;spacingLeft=4;spacingRight=4;overflow=hidden;rotatable=0;points=[[0,0.5],[1,0.5]];portConstraint=eastwest;" parent="lCJNZkqnmeG0tj6TGEAy-1" vertex="1">
          <mxGeometry y="52" width="230" height="28" as="geometry" />
        </mxCell>
        <mxCell id="b3hXFdu3TeVm44sbpzfN-18" value="+ orderItems: Order_Items_Rent [@]" style="text;strokeColor=none;fillColor=none;align=left;verticalAlign=top;spacingLeft=4;spacingRight=4;overflow=hidden;rotatable=0;points=[[0,0.5],[1,0.5]];portConstraint=eastwest;" parent="lCJNZkqnmeG0tj6TGEAy-1" vertex="1">
          <mxGeometry y="80" width="230" height="26" as="geometry" />
        </mxCell>
        <mxCell id="lCJNZkqnmeG0tj6TGEAy-3" value="" style="line;strokeWidth=1;fillColor=none;align=left;verticalAlign=middle;spacingTop=-1;spacingLeft=3;spacingRight=3;rotatable=0;labelPosition=right;points=[];portConstraint=eastwest;" parent="lCJNZkqnmeG0tj6TGEAy-1" vertex="1">
          <mxGeometry y="106" width="230" height="8" as="geometry" />
        </mxCell>
        <mxCell id="lCJNZkqnmeG0tj6TGEAy-4" value="+ method(type): type" style="text;strokeColor=none;fillColor=none;align=left;verticalAlign=top;spacingLeft=4;spacingRight=4;overflow=hidden;rotatable=0;points=[[0,0.5],[1,0.5]];portConstraint=eastwest;" parent="lCJNZkqnmeG0tj6TGEAy-1" vertex="1">
          <mxGeometry y="114" width="230" height="26" as="geometry" />
        </mxCell>
        <mxCell id="lCJNZkqnmeG0tj6TGEAy-30" value="" style="edgeStyle=entityRelationEdgeStyle;fontSize=12;html=1;endArrow=ERmandOne;startArrow=ERmandOne;" parent="tY16T3pncfpoFEnjYDi0-8" source="D7yU_GCtE6qUXjICYIwc-21" target="lCJNZkqnmeG0tj6TGEAy-1" edge="1">
          <mxGeometry width="100" height="100" relative="1" as="geometry">
            <mxPoint x="1083.139534883721" y="430" as="sourcePoint" />
            <mxPoint x="1177.3255813953488" y="330" as="targetPoint" />
          </mxGeometry>
        </mxCell>
        <mxCell id="lCJNZkqnmeG0tj6TGEAy-36" value="Product_Image" style="swimlane;fontStyle=1;align=center;verticalAlign=top;childLayout=stackLayout;horizontal=1;startSize=26;horizontalStack=0;resizeParent=1;resizeParentMax=0;resizeLast=0;collapsible=1;marginBottom=0;" parent="tY16T3pncfpoFEnjYDi0-8" vertex="1">
          <mxGeometry x="1140" y="80" width="160" height="112" as="geometry" />
        </mxCell>
        <mxCell id="lCJNZkqnmeG0tj6TGEAy-37" value="+ url: string" style="text;strokeColor=none;fillColor=none;align=left;verticalAlign=top;spacingLeft=4;spacingRight=4;overflow=hidden;rotatable=0;points=[[0,0.5],[1,0.5]];portConstraint=eastwest;" parent="lCJNZkqnmeG0tj6TGEAy-36" vertex="1">
          <mxGeometry y="26" width="160" height="26" as="geometry" />
        </mxCell>
        <mxCell id="lCJNZkqnmeG0tj6TGEAy-38" value="+ product: Product" style="text;strokeColor=none;fillColor=none;align=left;verticalAlign=top;spacingLeft=4;spacingRight=4;overflow=hidden;rotatable=0;points=[[0,0.5],[1,0.5]];portConstraint=eastwest;" parent="lCJNZkqnmeG0tj6TGEAy-36" vertex="1">
          <mxGeometry y="52" width="160" height="26" as="geometry" />
        </mxCell>
        <mxCell id="lCJNZkqnmeG0tj6TGEAy-39" value="" style="line;strokeWidth=1;fillColor=none;align=left;verticalAlign=middle;spacingTop=-1;spacingLeft=3;spacingRight=3;rotatable=0;labelPosition=right;points=[];portConstraint=eastwest;" parent="lCJNZkqnmeG0tj6TGEAy-36" vertex="1">
          <mxGeometry y="78" width="160" height="8" as="geometry" />
        </mxCell>
        <mxCell id="lCJNZkqnmeG0tj6TGEAy-40" value="+ method(type): type" style="text;strokeColor=none;fillColor=none;align=left;verticalAlign=top;spacingLeft=4;spacingRight=4;overflow=hidden;rotatable=0;points=[[0,0.5],[1,0.5]];portConstraint=eastwest;" parent="lCJNZkqnmeG0tj6TGEAy-36" vertex="1">
          <mxGeometry y="86" width="160" height="26" as="geometry" />
        </mxCell>
        <mxCell id="lCJNZkqnmeG0tj6TGEAy-42" value="" style="edgeStyle=entityRelationEdgeStyle;fontSize=12;html=1;endArrow=ERoneToMany;" parent="tY16T3pncfpoFEnjYDi0-8" source="z6MpF38ZV2_eBYSbtqBn-10" target="lCJNZkqnmeG0tj6TGEAy-38" edge="1">
          <mxGeometry width="100" height="100" relative="1" as="geometry">
            <mxPoint x="980" y="330" as="sourcePoint" />
            <mxPoint x="1080" y="230" as="targetPoint" />
          </mxGeometry>
        </mxCell>
        <mxCell id="lCJNZkqnmeG0tj6TGEAy-5" value="Category" style="swimlane;fontStyle=1;align=center;verticalAlign=top;childLayout=stackLayout;horizontal=1;startSize=26;horizontalStack=0;resizeParent=1;resizeParentMax=0;resizeLast=0;collapsible=1;marginBottom=0;" parent="tY16T3pncfpoFEnjYDi0-8" vertex="1">
          <mxGeometry x="320" y="376" width="180" height="138" as="geometry" />
        </mxCell>
        <mxCell id="lCJNZkqnmeG0tj6TGEAy-10" value="+ name: string" style="text;strokeColor=none;fillColor=none;align=left;verticalAlign=top;spacingLeft=4;spacingRight=4;overflow=hidden;rotatable=0;points=[[0,0.5],[1,0.5]];portConstraint=eastwest;" parent="lCJNZkqnmeG0tj6TGEAy-5" vertex="1">
          <mxGeometry y="26" width="180" height="26" as="geometry" />
        </mxCell>
        <mxCell id="z6MpF38ZV2_eBYSbtqBn-15" value="+ products: Product[@]" style="text;strokeColor=none;fillColor=none;align=left;verticalAlign=top;spacingLeft=4;spacingRight=4;overflow=hidden;rotatable=0;points=[[0,0.5],[1,0.5]];portConstraint=eastwest;" parent="lCJNZkqnmeG0tj6TGEAy-5" vertex="1">
          <mxGeometry y="52" width="180" height="26" as="geometry" />
        </mxCell>
        <mxCell id="lCJNZkqnmeG0tj6TGEAy-48" value="+ images: Category_Image [@}" style="text;strokeColor=none;fillColor=none;align=left;verticalAlign=top;spacingLeft=4;spacingRight=4;overflow=hidden;rotatable=0;points=[[0,0.5],[1,0.5]];portConstraint=eastwest;" parent="lCJNZkqnmeG0tj6TGEAy-5" vertex="1">
          <mxGeometry y="78" width="180" height="26" as="geometry" />
        </mxCell>
        <mxCell id="lCJNZkqnmeG0tj6TGEAy-7" value="" style="line;strokeWidth=1;fillColor=none;align=left;verticalAlign=middle;spacingTop=-1;spacingLeft=3;spacingRight=3;rotatable=0;labelPosition=right;points=[];portConstraint=eastwest;" parent="lCJNZkqnmeG0tj6TGEAy-5" vertex="1">
          <mxGeometry y="104" width="180" height="8" as="geometry" />
        </mxCell>
        <mxCell id="lCJNZkqnmeG0tj6TGEAy-8" value="+ method(type): type" style="text;strokeColor=none;fillColor=none;align=left;verticalAlign=top;spacingLeft=4;spacingRight=4;overflow=hidden;rotatable=0;points=[[0,0.5],[1,0.5]];portConstraint=eastwest;" parent="lCJNZkqnmeG0tj6TGEAy-5" vertex="1">
          <mxGeometry y="112" width="180" height="26" as="geometry" />
        </mxCell>
        <mxCell id="lCJNZkqnmeG0tj6TGEAy-17" value="" style="edgeStyle=entityRelationEdgeStyle;fontSize=12;html=1;endArrow=ERmany;startArrow=ERmany;" parent="tY16T3pncfpoFEnjYDi0-8" source="z6MpF38ZV2_eBYSbtqBn-14" target="z6MpF38ZV2_eBYSbtqBn-15" edge="1">
          <mxGeometry width="100" height="100" relative="1" as="geometry">
            <mxPoint x="1160" y="240" as="sourcePoint" />
            <mxPoint x="1040" y="451" as="targetPoint" />
          </mxGeometry>
        </mxCell>
        <mxCell id="lCJNZkqnmeG0tj6TGEAy-43" value="Category_Image" style="swimlane;fontStyle=1;align=center;verticalAlign=top;childLayout=stackLayout;horizontal=1;startSize=26;horizontalStack=0;resizeParent=1;resizeParentMax=0;resizeLast=0;collapsible=1;marginBottom=0;" parent="tY16T3pncfpoFEnjYDi0-8" vertex="1">
          <mxGeometry x="40" y="358" width="160" height="112" as="geometry" />
        </mxCell>
        <mxCell id="lCJNZkqnmeG0tj6TGEAy-44" value="+ url: string" style="text;strokeColor=none;fillColor=none;align=left;verticalAlign=top;spacingLeft=4;spacingRight=4;overflow=hidden;rotatable=0;points=[[0,0.5],[1,0.5]];portConstraint=eastwest;" parent="lCJNZkqnmeG0tj6TGEAy-43" vertex="1">
          <mxGeometry y="26" width="160" height="26" as="geometry" />
        </mxCell>
        <mxCell id="lCJNZkqnmeG0tj6TGEAy-45" value="+ category: Category" style="text;strokeColor=none;fillColor=none;align=left;verticalAlign=top;spacingLeft=4;spacingRight=4;overflow=hidden;rotatable=0;points=[[0,0.5],[1,0.5]];portConstraint=eastwest;" parent="lCJNZkqnmeG0tj6TGEAy-43" vertex="1">
          <mxGeometry y="52" width="160" height="26" as="geometry" />
        </mxCell>
        <mxCell id="lCJNZkqnmeG0tj6TGEAy-46" value="" style="line;strokeWidth=1;fillColor=none;align=left;verticalAlign=middle;spacingTop=-1;spacingLeft=3;spacingRight=3;rotatable=0;labelPosition=right;points=[];portConstraint=eastwest;" parent="lCJNZkqnmeG0tj6TGEAy-43" vertex="1">
          <mxGeometry y="78" width="160" height="8" as="geometry" />
        </mxCell>
        <mxCell id="lCJNZkqnmeG0tj6TGEAy-47" value="+ method(type): type" style="text;strokeColor=none;fillColor=none;align=left;verticalAlign=top;spacingLeft=4;spacingRight=4;overflow=hidden;rotatable=0;points=[[0,0.5],[1,0.5]];portConstraint=eastwest;" parent="lCJNZkqnmeG0tj6TGEAy-43" vertex="1">
          <mxGeometry y="86" width="160" height="26" as="geometry" />
        </mxCell>
        <mxCell id="lCJNZkqnmeG0tj6TGEAy-50" value="" style="edgeStyle=entityRelationEdgeStyle;fontSize=12;html=1;endArrow=ERoneToMany;" parent="tY16T3pncfpoFEnjYDi0-8" source="lCJNZkqnmeG0tj6TGEAy-48" target="lCJNZkqnmeG0tj6TGEAy-45" edge="1">
          <mxGeometry width="100" height="100" relative="1" as="geometry">
            <mxPoint x="790.8" y="410.72" as="sourcePoint" />
            <mxPoint x="970" y="200" as="targetPoint" />
          </mxGeometry>
        </mxCell>
        <mxCell id="D7yU_GCtE6qUXjICYIwc-15" value="Product_Spec" style="swimlane;fontStyle=1;align=center;verticalAlign=top;childLayout=stackLayout;horizontal=1;startSize=26;horizontalStack=0;resizeParent=1;resizeParentMax=0;resizeLast=0;collapsible=1;marginBottom=0;" vertex="1" parent="tY16T3pncfpoFEnjYDi0-8">
          <mxGeometry x="310" y="70" width="160" height="138" as="geometry" />
        </mxCell>
        <mxCell id="D7yU_GCtE6qUXjICYIwc-16" value="+ color: string" style="text;strokeColor=none;fillColor=none;align=left;verticalAlign=top;spacingLeft=4;spacingRight=4;overflow=hidden;rotatable=0;points=[[0,0.5],[1,0.5]];portConstraint=eastwest;" vertex="1" parent="D7yU_GCtE6qUXjICYIwc-15">
          <mxGeometry y="26" width="160" height="26" as="geometry" />
        </mxCell>
        <mxCell id="D7yU_GCtE6qUXjICYIwc-22" value="+ size: string" style="text;strokeColor=none;fillColor=none;align=left;verticalAlign=top;spacingLeft=4;spacingRight=4;overflow=hidden;rotatable=0;points=[[0,0.5],[1,0.5]];portConstraint=eastwest;" vertex="1" parent="D7yU_GCtE6qUXjICYIwc-15">
          <mxGeometry y="52" width="160" height="26" as="geometry" />
        </mxCell>
        <mxCell id="D7yU_GCtE6qUXjICYIwc-17" value="+ product: Product" style="text;strokeColor=none;fillColor=none;align=left;verticalAlign=top;spacingLeft=4;spacingRight=4;overflow=hidden;rotatable=0;points=[[0,0.5],[1,0.5]];portConstraint=eastwest;" vertex="1" parent="D7yU_GCtE6qUXjICYIwc-15">
          <mxGeometry y="78" width="160" height="26" as="geometry" />
        </mxCell>
        <mxCell id="D7yU_GCtE6qUXjICYIwc-18" value="" style="line;strokeWidth=1;fillColor=none;align=left;verticalAlign=middle;spacingTop=-1;spacingLeft=3;spacingRight=3;rotatable=0;labelPosition=right;points=[];portConstraint=eastwest;" vertex="1" parent="D7yU_GCtE6qUXjICYIwc-15">
          <mxGeometry y="104" width="160" height="8" as="geometry" />
        </mxCell>
        <mxCell id="D7yU_GCtE6qUXjICYIwc-19" value="+ method(type): type" style="text;strokeColor=none;fillColor=none;align=left;verticalAlign=top;spacingLeft=4;spacingRight=4;overflow=hidden;rotatable=0;points=[[0,0.5],[1,0.5]];portConstraint=eastwest;" vertex="1" parent="D7yU_GCtE6qUXjICYIwc-15">
          <mxGeometry y="112" width="160" height="26" as="geometry" />
        </mxCell>
        <mxCell id="D7yU_GCtE6qUXjICYIwc-20" value="" style="edgeStyle=entityRelationEdgeStyle;fontSize=12;html=1;endArrow=ERoneToMany;" edge="1" parent="tY16T3pncfpoFEnjYDi0-8" source="lCJNZkqnmeG0tj6TGEAy-34" target="D7yU_GCtE6qUXjICYIwc-17">
          <mxGeometry width="100" height="100" relative="1" as="geometry">
            <mxPoint x="330" y="477" as="sourcePoint" />
            <mxPoint x="210" y="432.9999999999998" as="targetPoint" />
          </mxGeometry>
        </mxCell>
        <mxCell id="lCJNZkqnmeG0tj6TGEAy-71" value="Role" style="swimlane;fontStyle=1;align=center;verticalAlign=top;childLayout=stackLayout;horizontal=1;startSize=26;horizontalStack=0;resizeParent=1;resizeParentMax=0;resizeLast=0;collapsible=1;marginBottom=0;" parent="1" vertex="1">
          <mxGeometry x="-1520" y="810" width="160" height="86" as="geometry" />
        </mxCell>
        <mxCell id="lCJNZkqnmeG0tj6TGEAy-72" value="+ users: User[@]" style="text;strokeColor=none;fillColor=none;align=left;verticalAlign=top;spacingLeft=4;spacingRight=4;overflow=hidden;rotatable=0;points=[[0,0.5],[1,0.5]];portConstraint=eastwest;" parent="lCJNZkqnmeG0tj6TGEAy-71" vertex="1">
          <mxGeometry y="26" width="160" height="26" as="geometry" />
        </mxCell>
        <mxCell id="lCJNZkqnmeG0tj6TGEAy-73" value="" style="line;strokeWidth=1;fillColor=none;align=left;verticalAlign=middle;spacingTop=-1;spacingLeft=3;spacingRight=3;rotatable=0;labelPosition=right;points=[];portConstraint=eastwest;" parent="lCJNZkqnmeG0tj6TGEAy-71" vertex="1">
          <mxGeometry y="52" width="160" height="8" as="geometry" />
        </mxCell>
        <mxCell id="lCJNZkqnmeG0tj6TGEAy-74" value="+ method(type): type" style="text;strokeColor=none;fillColor=none;align=left;verticalAlign=top;spacingLeft=4;spacingRight=4;overflow=hidden;rotatable=0;points=[[0,0.5],[1,0.5]];portConstraint=eastwest;" parent="lCJNZkqnmeG0tj6TGEAy-71" vertex="1">
          <mxGeometry y="60" width="160" height="26" as="geometry" />
        </mxCell>
        <mxCell id="lCJNZkqnmeG0tj6TGEAy-79" value="" style="edgeStyle=entityRelationEdgeStyle;fontSize=12;html=1;endArrow=ERoneToMany;startArrow=ERoneToMany;" parent="1" source="lCJNZkqnmeG0tj6TGEAy-87" target="lCJNZkqnmeG0tj6TGEAy-72" edge="1">
          <mxGeometry width="100" height="100" relative="1" as="geometry">
            <mxPoint x="-860" y="790" as="sourcePoint" />
            <mxPoint x="-760" y="690" as="targetPoint" />
          </mxGeometry>
        </mxCell>
        <mxCell id="z6MpF38ZV2_eBYSbtqBn-25" value="" style="edgeStyle=entityRelationEdgeStyle;fontSize=12;html=1;endArrow=ERoneToMany;" parent="1" source="z6MpF38ZV2_eBYSbtqBn-24" target="z6MpF38ZV2_eBYSbtqBn-18" edge="1">
          <mxGeometry width="100" height="100" relative="1" as="geometry">
            <mxPoint x="230" y="1010" as="sourcePoint" />
            <mxPoint x="330" y="910" as="targetPoint" />
          </mxGeometry>
        </mxCell>
        <mxCell id="z6MpF38ZV2_eBYSbtqBn-34" value="Shipping_Address" style="swimlane;fontStyle=1;align=center;verticalAlign=top;childLayout=stackLayout;horizontal=1;startSize=26;horizontalStack=0;resizeParent=1;resizeParentMax=0;resizeLast=0;collapsible=1;marginBottom=0;" parent="1" vertex="1">
          <mxGeometry x="-670" y="1288.1100000000001" width="160" height="86" as="geometry">
            <mxRectangle x="370" y="1040" width="120" height="26" as="alternateBounds" />
          </mxGeometry>
        </mxCell>
        <mxCell id="z6MpF38ZV2_eBYSbtqBn-35" value="+ order: Order" style="text;strokeColor=none;fillColor=none;align=left;verticalAlign=top;spacingLeft=4;spacingRight=4;overflow=hidden;rotatable=0;points=[[0,0.5],[1,0.5]];portConstraint=eastwest;" parent="z6MpF38ZV2_eBYSbtqBn-34" vertex="1">
          <mxGeometry y="26" width="160" height="26" as="geometry" />
        </mxCell>
        <mxCell id="z6MpF38ZV2_eBYSbtqBn-36" value="" style="line;strokeWidth=1;fillColor=none;align=left;verticalAlign=middle;spacingTop=-1;spacingLeft=3;spacingRight=3;rotatable=0;labelPosition=right;points=[];portConstraint=eastwest;" parent="z6MpF38ZV2_eBYSbtqBn-34" vertex="1">
          <mxGeometry y="52" width="160" height="8" as="geometry" />
        </mxCell>
        <mxCell id="z6MpF38ZV2_eBYSbtqBn-37" value="+ method(type): type" style="text;strokeColor=none;fillColor=none;align=left;verticalAlign=top;spacingLeft=4;spacingRight=4;overflow=hidden;rotatable=0;points=[[0,0.5],[1,0.5]];portConstraint=eastwest;" parent="z6MpF38ZV2_eBYSbtqBn-34" vertex="1">
          <mxGeometry y="60" width="160" height="26" as="geometry" />
        </mxCell>
        <mxCell id="b3hXFdu3TeVm44sbpzfN-20" value="" style="edgeStyle=entityRelationEdgeStyle;fontSize=12;html=1;endArrow=ERoneToMany;" parent="1" source="b3hXFdu3TeVm44sbpzfN-22" target="b3hXFdu3TeVm44sbpzfN-18" edge="1">
          <mxGeometry width="100" height="100" relative="1" as="geometry">
            <mxPoint x="140" y="780" as="sourcePoint" />
            <mxPoint x="340" y="710" as="targetPoint" />
          </mxGeometry>
        </mxCell>
        <mxCell id="b3hXFdu3TeVm44sbpzfN-23" value="" style="edgeStyle=entityRelationEdgeStyle;fontSize=12;html=1;endArrow=ERoneToMany;" parent="1" source="b3hXFdu3TeVm44sbpzfN-21" target="b3hXFdu3TeVm44sbpzfN-19" edge="1">
          <mxGeometry width="100" height="100" relative="1" as="geometry">
            <mxPoint x="240" y="840" as="sourcePoint" />
            <mxPoint x="340" y="740" as="targetPoint" />
          </mxGeometry>
        </mxCell>
        <mxCell id="tY16T3pncfpoFEnjYDi0-22" value="Pedido" style="text;html=1;strokeColor=none;fillColor=none;align=center;verticalAlign=middle;whiteSpace=wrap;rounded=0;fontStyle=1" parent="1" vertex="1">
          <mxGeometry x="-370.6896551724138" y="816.530612244898" width="41.37931034482759" height="24.489795918367346" as="geometry" />
        </mxCell>
        <mxCell id="z6MpF38ZV2_eBYSbtqBn-1" value="Order" style="swimlane;fontStyle=1;align=center;verticalAlign=top;childLayout=stackLayout;horizontal=1;startSize=26;horizontalStack=0;resizeParent=1;resizeParentMax=0;resizeLast=0;collapsible=1;marginBottom=0;" parent="1" vertex="1">
          <mxGeometry x="-740" y="989.9994915254238" width="250" height="209.45762711864404" as="geometry" />
        </mxCell>
        <mxCell id="b3hXFdu3TeVm44sbpzfN-15" value="+ order_items_rent: Order_Item_Rent[@]" style="text;strokeColor=none;fillColor=none;align=left;verticalAlign=top;spacingLeft=4;spacingRight=4;overflow=hidden;rotatable=0;points=[[0,0.5],[1,0.5]];portConstraint=eastwest;" parent="z6MpF38ZV2_eBYSbtqBn-1" vertex="1">
          <mxGeometry y="26" width="250" height="29.08474576271186" as="geometry" />
        </mxCell>
        <mxCell id="z6MpF38ZV2_eBYSbtqBn-13" value="+ order_items_sell: Order_Item_Sell[@]" style="text;strokeColor=none;fillColor=none;align=left;verticalAlign=top;spacingLeft=4;spacingRight=4;overflow=hidden;rotatable=0;points=[[0,0.5],[1,0.5]];portConstraint=eastwest;" parent="z6MpF38ZV2_eBYSbtqBn-1" vertex="1">
          <mxGeometry y="55.08474576271186" width="250" height="29.08474576271186" as="geometry" />
        </mxCell>
        <mxCell id="z6MpF38ZV2_eBYSbtqBn-23" value="+ total: number" style="text;strokeColor=none;fillColor=none;align=left;verticalAlign=top;spacingLeft=4;spacingRight=4;overflow=hidden;rotatable=0;points=[[0,0.5],[1,0.5]];portConstraint=eastwest;" parent="z6MpF38ZV2_eBYSbtqBn-1" vertex="1">
          <mxGeometry y="84.16949152542372" width="250" height="29.08474576271186" as="geometry" />
        </mxCell>
        <mxCell id="z6MpF38ZV2_eBYSbtqBn-18" value="+ user: User" style="text;strokeColor=none;fillColor=none;align=left;verticalAlign=top;spacingLeft=4;spacingRight=4;overflow=hidden;rotatable=0;points=[[0,0.5],[1,0.5]];portConstraint=eastwest;" parent="z6MpF38ZV2_eBYSbtqBn-1" vertex="1">
          <mxGeometry y="113.25423728813558" width="250" height="29.08474576271186" as="geometry" />
        </mxCell>
        <mxCell id="aNgQ0NmibXXHdKZTqUHY-3" value="+ shipping_address: Shipping_Address" style="text;strokeColor=none;fillColor=none;align=left;verticalAlign=top;spacingLeft=4;spacingRight=4;overflow=hidden;rotatable=0;points=[[0,0.5],[1,0.5]];portConstraint=eastwest;" parent="z6MpF38ZV2_eBYSbtqBn-1" vertex="1">
          <mxGeometry y="142.33898305084745" width="250" height="29.08474576271186" as="geometry" />
        </mxCell>
        <mxCell id="z6MpF38ZV2_eBYSbtqBn-3" value="" style="line;strokeWidth=1;fillColor=none;align=left;verticalAlign=middle;spacingTop=-1;spacingLeft=3;spacingRight=3;rotatable=0;labelPosition=right;points=[];portConstraint=eastwest;" parent="z6MpF38ZV2_eBYSbtqBn-1" vertex="1">
          <mxGeometry y="171.4237288135593" width="250" height="8.94915254237288" as="geometry" />
        </mxCell>
        <mxCell id="z6MpF38ZV2_eBYSbtqBn-4" value="+ method(type): type" style="text;strokeColor=none;fillColor=none;align=left;verticalAlign=top;spacingLeft=4;spacingRight=4;overflow=hidden;rotatable=0;points=[[0,0.5],[1,0.5]];portConstraint=eastwest;" parent="z6MpF38ZV2_eBYSbtqBn-1" vertex="1">
          <mxGeometry y="180.37288135593218" width="250" height="29.08474576271186" as="geometry" />
        </mxCell>
        <mxCell id="z6MpF38ZV2_eBYSbtqBn-26" value="Order_Item_Sell_Status" style="swimlane;fontStyle=1;align=center;verticalAlign=top;childLayout=stackLayout;horizontal=1;startSize=26;horizontalStack=0;resizeParent=1;resizeParentMax=0;resizeLast=0;collapsible=1;marginBottom=0;" parent="1" vertex="1">
          <mxGeometry x="60" y="1270.004745762712" width="200" height="122.20338983050847" as="geometry" />
        </mxCell>
        <mxCell id="z6MpF38ZV2_eBYSbtqBn-27" value="+ order_item: Order_Item_ Sell" style="text;strokeColor=none;fillColor=none;align=left;verticalAlign=top;spacingLeft=4;spacingRight=4;overflow=hidden;rotatable=0;points=[[0,0.5],[1,0.5]];portConstraint=eastwest;" parent="z6MpF38ZV2_eBYSbtqBn-26" vertex="1">
          <mxGeometry y="26" width="200" height="29.08474576271186" as="geometry" />
        </mxCell>
        <mxCell id="b3hXFdu3TeVm44sbpzfN-83" value="+ status: Sell_Status" style="text;strokeColor=none;fillColor=none;align=left;verticalAlign=top;spacingLeft=4;spacingRight=4;overflow=hidden;rotatable=0;points=[[0,0.5],[1,0.5]];portConstraint=eastwest;" parent="z6MpF38ZV2_eBYSbtqBn-26" vertex="1">
          <mxGeometry y="55.08474576271186" width="200" height="29.08474576271186" as="geometry" />
        </mxCell>
        <mxCell id="z6MpF38ZV2_eBYSbtqBn-28" value="" style="line;strokeWidth=1;fillColor=none;align=left;verticalAlign=middle;spacingTop=-1;spacingLeft=3;spacingRight=3;rotatable=0;labelPosition=right;points=[];portConstraint=eastwest;" parent="z6MpF38ZV2_eBYSbtqBn-26" vertex="1">
          <mxGeometry y="84.16949152542372" width="200" height="8.94915254237288" as="geometry" />
        </mxCell>
        <mxCell id="z6MpF38ZV2_eBYSbtqBn-29" value="+ method(type): type" style="text;strokeColor=none;fillColor=none;align=left;verticalAlign=top;spacingLeft=4;spacingRight=4;overflow=hidden;rotatable=0;points=[[0,0.5],[1,0.5]];portConstraint=eastwest;" parent="z6MpF38ZV2_eBYSbtqBn-26" vertex="1">
          <mxGeometry y="93.11864406779661" width="200" height="29.08474576271186" as="geometry" />
        </mxCell>
        <mxCell id="tY16T3pncfpoFEnjYDi0-25" value="" style="edgeStyle=entityRelationEdgeStyle;fontSize=12;html=1;endArrow=ERmany;" parent="1" source="z6MpF38ZV2_eBYSbtqBn-30" target="z6MpF38ZV2_eBYSbtqBn-26" edge="1">
          <mxGeometry x="-800" y="770" width="100" height="100" as="geometry">
            <mxPoint x="-40" y="1116.7796610169491" as="sourcePoint" />
            <mxPoint x="60" y="1004.9152542372881" as="targetPoint" />
          </mxGeometry>
        </mxCell>
        <mxCell id="b3hXFdu3TeVm44sbpzfN-5" value="Order_Item_Sell" style="swimlane;fontStyle=1;align=center;verticalAlign=top;childLayout=stackLayout;horizontal=1;startSize=26;horizontalStack=0;resizeParent=1;resizeParentMax=0;resizeLast=0;collapsible=1;marginBottom=0;" parent="1" vertex="1">
          <mxGeometry x="500" y="1210.0005084745762" width="160" height="180.37288135593218" as="geometry" />
        </mxCell>
        <mxCell id="b3hXFdu3TeVm44sbpzfN-13" value="+ order: Order" style="text;strokeColor=none;fillColor=none;align=left;verticalAlign=top;spacingLeft=4;spacingRight=4;overflow=hidden;rotatable=0;points=[[0,0.5],[1,0.5]];portConstraint=eastwest;" parent="b3hXFdu3TeVm44sbpzfN-5" vertex="1">
          <mxGeometry y="26" width="160" height="29.08474576271186" as="geometry" />
        </mxCell>
        <mxCell id="b3hXFdu3TeVm44sbpzfN-21" value="+ product: Product_Sell" style="text;strokeColor=none;fillColor=none;align=left;verticalAlign=top;spacingLeft=4;spacingRight=4;overflow=hidden;rotatable=0;points=[[0,0.5],[1,0.5]];portConstraint=eastwest;" parent="b3hXFdu3TeVm44sbpzfN-5" vertex="1">
          <mxGeometry y="55.08474576271186" width="160" height="29.08474576271186" as="geometry" />
        </mxCell>
        <mxCell id="b3hXFdu3TeVm44sbpzfN-66" value="+ unit_price: number" style="text;strokeColor=none;fillColor=none;align=left;verticalAlign=top;spacingLeft=4;spacingRight=4;overflow=hidden;rotatable=0;points=[[0,0.5],[1,0.5]];portConstraint=eastwest;" parent="b3hXFdu3TeVm44sbpzfN-5" vertex="1">
          <mxGeometry y="84.16949152542372" width="160" height="29.08474576271186" as="geometry" />
        </mxCell>
        <mxCell id="z6MpF38ZV2_eBYSbtqBn-30" value="+ order_item_status: Order_Item_Status" style="text;strokeColor=none;fillColor=none;align=left;verticalAlign=top;spacingLeft=4;spacingRight=4;overflow=hidden;rotatable=0;points=[[0,0.5],[1,0.5]];portConstraint=eastwest;" parent="b3hXFdu3TeVm44sbpzfN-5" vertex="1">
          <mxGeometry y="113.25423728813558" width="160" height="29.08474576271186" as="geometry" />
        </mxCell>
        <mxCell id="b3hXFdu3TeVm44sbpzfN-7" value="" style="line;strokeWidth=1;fillColor=none;align=left;verticalAlign=middle;spacingTop=-1;spacingLeft=3;spacingRight=3;rotatable=0;labelPosition=right;points=[];portConstraint=eastwest;" parent="b3hXFdu3TeVm44sbpzfN-5" vertex="1">
          <mxGeometry y="142.33898305084745" width="160" height="8.94915254237288" as="geometry" />
        </mxCell>
        <mxCell id="b3hXFdu3TeVm44sbpzfN-8" value="+ method(type): type" style="text;strokeColor=none;fillColor=none;align=left;verticalAlign=top;spacingLeft=4;spacingRight=4;overflow=hidden;rotatable=0;points=[[0,0.5],[1,0.5]];portConstraint=eastwest;" parent="b3hXFdu3TeVm44sbpzfN-5" vertex="1">
          <mxGeometry y="151.28813559322032" width="160" height="29.08474576271186" as="geometry" />
        </mxCell>
        <mxCell id="b3hXFdu3TeVm44sbpzfN-9" value="Order_Item_Rent" style="swimlane;fontStyle=1;align=center;verticalAlign=top;childLayout=stackLayout;horizontal=1;startSize=26;horizontalStack=0;resizeParent=1;resizeParentMax=0;resizeLast=0;collapsible=1;marginBottom=0;" parent="1" vertex="1">
          <mxGeometry x="-150" y="870" width="280" height="180.37288135593218" as="geometry" />
        </mxCell>
        <mxCell id="z6MpF38ZV2_eBYSbtqBn-6" value="+ order: Order" style="text;strokeColor=none;fillColor=none;align=left;verticalAlign=top;spacingLeft=4;spacingRight=4;overflow=hidden;rotatable=0;points=[[0,0.5],[1,0.5]];portConstraint=eastwest;" parent="b3hXFdu3TeVm44sbpzfN-9" vertex="1">
          <mxGeometry y="26" width="280" height="29.08474576271186" as="geometry" />
        </mxCell>
        <mxCell id="b3hXFdu3TeVm44sbpzfN-22" value="+ product: Product_Rent" style="text;strokeColor=none;fillColor=none;align=left;verticalAlign=top;spacingLeft=4;spacingRight=4;overflow=hidden;rotatable=0;points=[[0,0.5],[1,0.5]];portConstraint=eastwest;" parent="b3hXFdu3TeVm44sbpzfN-9" vertex="1">
          <mxGeometry y="55.08474576271186" width="280" height="29.08474576271186" as="geometry" />
        </mxCell>
        <mxCell id="b3hXFdu3TeVm44sbpzfN-14" value="+ unit_price: number" style="text;strokeColor=none;fillColor=none;align=left;verticalAlign=top;spacingLeft=4;spacingRight=4;overflow=hidden;rotatable=0;points=[[0,0.5],[1,0.5]];portConstraint=eastwest;" parent="b3hXFdu3TeVm44sbpzfN-9" vertex="1">
          <mxGeometry y="84.16949152542372" width="280" height="29.08474576271186" as="geometry" />
        </mxCell>
        <mxCell id="b3hXFdu3TeVm44sbpzfN-25" value="+ order_item_rent_status: Order_Item_Status" style="text;strokeColor=none;fillColor=none;align=left;verticalAlign=top;spacingLeft=4;spacingRight=4;overflow=hidden;rotatable=0;points=[[0,0.5],[1,0.5]];portConstraint=eastwest;" parent="b3hXFdu3TeVm44sbpzfN-9" vertex="1">
          <mxGeometry y="113.25423728813558" width="280" height="29.08474576271186" as="geometry" />
        </mxCell>
        <mxCell id="b3hXFdu3TeVm44sbpzfN-11" value="" style="line;strokeWidth=1;fillColor=none;align=left;verticalAlign=middle;spacingTop=-1;spacingLeft=3;spacingRight=3;rotatable=0;labelPosition=right;points=[];portConstraint=eastwest;" parent="b3hXFdu3TeVm44sbpzfN-9" vertex="1">
          <mxGeometry y="142.33898305084745" width="280" height="8.94915254237288" as="geometry" />
        </mxCell>
        <mxCell id="b3hXFdu3TeVm44sbpzfN-12" value="+ method(type): type" style="text;strokeColor=none;fillColor=none;align=left;verticalAlign=top;spacingLeft=4;spacingRight=4;overflow=hidden;rotatable=0;points=[[0,0.5],[1,0.5]];portConstraint=eastwest;" parent="b3hXFdu3TeVm44sbpzfN-9" vertex="1">
          <mxGeometry y="151.28813559322032" width="280" height="29.08474576271186" as="geometry" />
        </mxCell>
        <mxCell id="b3hXFdu3TeVm44sbpzfN-61" value="Order_Item_Rent_Status" style="swimlane;fontStyle=1;align=center;verticalAlign=top;childLayout=stackLayout;horizontal=1;startSize=26;horizontalStack=0;resizeParent=1;resizeParentMax=0;resizeLast=0;collapsible=1;marginBottom=0;" parent="1" vertex="1">
          <mxGeometry x="460" y="841.0184745762712" width="190" height="122.20338983050847" as="geometry" />
        </mxCell>
        <mxCell id="b3hXFdu3TeVm44sbpzfN-62" value="+ order_item: Order_Item_Rent" style="text;strokeColor=none;fillColor=none;align=left;verticalAlign=top;spacingLeft=4;spacingRight=4;overflow=hidden;rotatable=0;points=[[0,0.5],[1,0.5]];portConstraint=eastwest;" parent="b3hXFdu3TeVm44sbpzfN-61" vertex="1">
          <mxGeometry y="26" width="190" height="29.08474576271186" as="geometry" />
        </mxCell>
        <mxCell id="b3hXFdu3TeVm44sbpzfN-73" value="+ status: Rent_Status" style="text;strokeColor=none;fillColor=none;align=left;verticalAlign=top;spacingLeft=4;spacingRight=4;overflow=hidden;rotatable=0;points=[[0,0.5],[1,0.5]];portConstraint=eastwest;" parent="b3hXFdu3TeVm44sbpzfN-61" vertex="1">
          <mxGeometry y="55.08474576271186" width="190" height="29.08474576271186" as="geometry" />
        </mxCell>
        <mxCell id="b3hXFdu3TeVm44sbpzfN-63" value="" style="line;strokeWidth=1;fillColor=none;align=left;verticalAlign=middle;spacingTop=-1;spacingLeft=3;spacingRight=3;rotatable=0;labelPosition=right;points=[];portConstraint=eastwest;" parent="b3hXFdu3TeVm44sbpzfN-61" vertex="1">
          <mxGeometry y="84.16949152542372" width="190" height="8.94915254237288" as="geometry" />
        </mxCell>
        <mxCell id="b3hXFdu3TeVm44sbpzfN-64" value="+ method(type): type" style="text;strokeColor=none;fillColor=none;align=left;verticalAlign=top;spacingLeft=4;spacingRight=4;overflow=hidden;rotatable=0;points=[[0,0.5],[1,0.5]];portConstraint=eastwest;" parent="b3hXFdu3TeVm44sbpzfN-61" vertex="1">
          <mxGeometry y="93.11864406779661" width="190" height="29.08474576271186" as="geometry" />
        </mxCell>
        <mxCell id="b3hXFdu3TeVm44sbpzfN-65" value="" style="edgeStyle=entityRelationEdgeStyle;fontSize=12;html=1;endArrow=ERmany;" parent="1" source="b3hXFdu3TeVm44sbpzfN-25" target="b3hXFdu3TeVm44sbpzfN-62" edge="1">
          <mxGeometry x="-800" y="770" width="100" height="100" as="geometry">
            <mxPoint x="-250" y="1267.7966101694913" as="sourcePoint" />
            <mxPoint x="-190" y="1323.7288135593217" as="targetPoint" />
          </mxGeometry>
        </mxCell>
        <mxCell id="b3hXFdu3TeVm44sbpzfN-67" value="" style="edgeStyle=entityRelationEdgeStyle;fontSize=12;html=1;endArrow=ERoneToMany;" parent="1" source="b3hXFdu3TeVm44sbpzfN-15" target="z6MpF38ZV2_eBYSbtqBn-6" edge="1">
          <mxGeometry x="-800" y="770" width="100" height="100" as="geometry">
            <mxPoint x="-556.3308163265306" y="1249.8983050847457" as="sourcePoint" />
            <mxPoint x="-533.3681632653061" y="970.2372881355932" as="targetPoint" />
          </mxGeometry>
        </mxCell>
        <mxCell id="b3hXFdu3TeVm44sbpzfN-68" value="" style="edgeStyle=entityRelationEdgeStyle;fontSize=12;html=1;endArrow=ERoneToMany;" parent="1" source="z6MpF38ZV2_eBYSbtqBn-13" target="b3hXFdu3TeVm44sbpzfN-13" edge="1">
          <mxGeometry x="-800" y="770" width="100" height="100" as="geometry">
            <mxPoint x="-490" y="1227.5254237288136" as="sourcePoint" />
            <mxPoint x="-470" y="947.8644067796611" as="targetPoint" />
          </mxGeometry>
        </mxCell>
        <mxCell id="b3hXFdu3TeVm44sbpzfN-69" value="Rent_Status" style="swimlane;fontStyle=0;childLayout=stackLayout;horizontal=1;startSize=26;fillColor=none;horizontalStack=0;resizeParent=1;resizeParentMax=0;resizeLast=0;collapsible=1;marginBottom=0;" parent="1" vertex="1">
          <mxGeometry x="340" y="1019.9999999999999" width="140" height="104" as="geometry" />
        </mxCell>
        <mxCell id="b3hXFdu3TeVm44sbpzfN-70" value="+ mount: type" style="text;strokeColor=none;fillColor=none;align=left;verticalAlign=top;spacingLeft=4;spacingRight=4;overflow=hidden;rotatable=0;points=[[0,0.5],[1,0.5]];portConstraint=eastwest;" parent="b3hXFdu3TeVm44sbpzfN-69" vertex="1">
          <mxGeometry y="26" width="140" height="26" as="geometry" />
        </mxCell>
        <mxCell id="b3hXFdu3TeVm44sbpzfN-71" value="+ delivery: type" style="text;strokeColor=none;fillColor=none;align=left;verticalAlign=top;spacingLeft=4;spacingRight=4;overflow=hidden;rotatable=0;points=[[0,0.5],[1,0.5]];portConstraint=eastwest;" parent="b3hXFdu3TeVm44sbpzfN-69" vertex="1">
          <mxGeometry y="52" width="140" height="26" as="geometry" />
        </mxCell>
        <mxCell id="b3hXFdu3TeVm44sbpzfN-72" value="+ returned: type" style="text;strokeColor=none;fillColor=none;align=left;verticalAlign=top;spacingLeft=4;spacingRight=4;overflow=hidden;rotatable=0;points=[[0,0.5],[1,0.5]];portConstraint=eastwest;" parent="b3hXFdu3TeVm44sbpzfN-69" vertex="1">
          <mxGeometry y="78" width="140" height="26" as="geometry" />
        </mxCell>
        <mxCell id="b3hXFdu3TeVm44sbpzfN-74" style="edgeStyle=orthogonalEdgeStyle;rounded=0;orthogonalLoop=1;jettySize=auto;html=1;" parent="1" source="b3hXFdu3TeVm44sbpzfN-73" target="b3hXFdu3TeVm44sbpzfN-69" edge="1">
          <mxGeometry x="-800" y="770" as="geometry" />
        </mxCell>
        <mxCell id="b3hXFdu3TeVm44sbpzfN-78" value="Sell_Status" style="swimlane;fontStyle=0;childLayout=stackLayout;horizontal=1;startSize=26;fillColor=none;horizontalStack=0;resizeParent=1;resizeParentMax=0;resizeLast=0;collapsible=1;marginBottom=0;" parent="1" vertex="1">
          <mxGeometry x="-130" y="1230" width="140" height="78" as="geometry" />
        </mxCell>
        <mxCell id="b3hXFdu3TeVm44sbpzfN-79" value="+ mount: type" style="text;strokeColor=none;fillColor=none;align=left;verticalAlign=top;spacingLeft=4;spacingRight=4;overflow=hidden;rotatable=0;points=[[0,0.5],[1,0.5]];portConstraint=eastwest;" parent="b3hXFdu3TeVm44sbpzfN-78" vertex="1">
          <mxGeometry y="26" width="140" height="26" as="geometry" />
        </mxCell>
        <mxCell id="b3hXFdu3TeVm44sbpzfN-80" value="+ delivery: type" style="text;strokeColor=none;fillColor=none;align=left;verticalAlign=top;spacingLeft=4;spacingRight=4;overflow=hidden;rotatable=0;points=[[0,0.5],[1,0.5]];portConstraint=eastwest;" parent="b3hXFdu3TeVm44sbpzfN-78" vertex="1">
          <mxGeometry y="52" width="140" height="26" as="geometry" />
        </mxCell>
        <mxCell id="b3hXFdu3TeVm44sbpzfN-84" style="edgeStyle=orthogonalEdgeStyle;rounded=0;orthogonalLoop=1;jettySize=auto;html=1;" parent="1" source="b3hXFdu3TeVm44sbpzfN-83" target="b3hXFdu3TeVm44sbpzfN-78" edge="1">
          <mxGeometry relative="1" as="geometry" />
        </mxCell>
        <mxCell id="aNgQ0NmibXXHdKZTqUHY-2" value="" style="edgeStyle=entityRelationEdgeStyle;fontSize=12;html=1;endArrow=ERmandOne;startArrow=ERmandOne;" parent="1" source="z6MpF38ZV2_eBYSbtqBn-35" target="aNgQ0NmibXXHdKZTqUHY-3" edge="1">
          <mxGeometry width="100" height="100" relative="1" as="geometry">
            <mxPoint x="-590.0000000000002" y="1520" as="sourcePoint" />
            <mxPoint x="-448.95000000000005" y="1585" as="targetPoint" />
          </mxGeometry>
        </mxCell>
      </root>
    </mxGraphModel>
  </diagram>
</mxfile>
